<svg width="120" height="99" viewBox="0 0 120 99" fill="none" xmlns="http://www.w3.org/2000/svg">
<path d="M119.245 52.7379C119.006 52.7038 118.785 52.7208 118.58 52.7891C118.512 52.6526 118.375 52.5502 118.17 52.5331C117.692 52.499 117.317 52.2942 117.078 51.9358C116.805 51.4921 116.703 50.9631 116.686 50.4341C116.651 49.3419 116.89 48.1473 117.505 47.277C117.607 47.1234 117.607 46.9698 117.539 46.8504C117.982 46.4408 118.409 45.963 118.665 45.434C119.058 45.1097 119.399 44.7684 119.672 44.3077C120.064 43.6592 120.252 42.6182 119.245 42.4646C119.006 42.4305 118.785 42.4475 118.58 42.5158C118.512 42.3793 118.375 42.2769 118.17 42.2598C117.692 42.2257 117.317 42.0209 117.078 41.6625C116.805 41.2188 116.703 40.6898 116.686 40.1608C116.651 39.0686 116.89 37.8741 117.505 37.0037C117.607 36.8501 117.607 36.6965 117.539 36.5771C118.256 35.8945 118.955 35.0412 118.921 34.0685C119.177 33.8125 119.416 33.5395 119.621 33.2152C120.013 32.5497 120.184 31.5258 119.177 31.3722C118.938 31.338 118.716 31.3722 118.511 31.4404C118.443 31.3039 118.307 31.2015 118.102 31.1845C117.624 31.1674 117.249 30.9626 117.01 30.5872C116.72 30.1605 116.634 29.6315 116.6 29.1025C116.549 28.0103 116.788 26.8158 117.385 25.9284C117.488 25.7748 117.488 25.6212 117.419 25.5017C118.136 24.8021 118.836 23.9317 118.785 22.9419C118.785 22.8054 118.75 22.6689 118.716 22.5324C118.733 22.4129 118.716 22.2935 118.665 22.1911C118.119 21.2525 116.993 20.7064 116.054 20.2968C114.877 19.7849 113.648 19.3753 112.436 18.9657C110.952 18.4708 109.518 17.8394 108.068 17.2421C106.156 16.4571 104.228 15.6892 102.317 14.9042C98.4939 13.3512 94.7054 11.7471 90.8316 10.3307C87.0772 8.93133 83.2546 7.7709 79.4491 6.50807C77.35 5.80839 75.2851 5.04046 73.1861 4.28959C71.3943 3.65817 69.5853 3.06087 67.8788 2.22468C67.8617 2.20761 67.8447 2.17349 67.8276 2.15643C67.1791 1.35436 66.4112 0.620547 65.4385 0.245111C64.6364 -0.0620644 63.7661 -0.0620602 62.9469 0.142723C62.0425 0.364572 61.2063 0.791203 60.4042 1.2349C59.3632 1.81512 58.3223 2.41241 57.2983 3.00969C52.5883 5.74014 47.9636 8.6071 43.4243 11.5935C38.8337 14.6141 34.3285 17.737 29.8915 20.9624C25.4033 24.2389 21.0688 27.6861 16.6489 31.0309C14.4816 32.6691 12.2801 34.2392 10.147 35.9115C8.04795 37.5669 6.00011 39.2905 3.83282 40.8434C3.3038 41.2188 2.79184 41.5772 2.24575 41.9356C2.10923 42.0209 2.04097 42.1404 2.02391 42.2769C1.27303 42.9766 0.744014 43.9152 0.453905 44.9391C-0.10925 46.8675 0.0443405 49.0689 0.709886 50.9461C0.91467 51.5604 1.1877 52.1236 1.51194 52.6867C0.999985 53.3011 0.624556 54.0178 0.385642 54.8028C-0.194578 56.7312 -0.0580544 58.9326 0.573361 60.8268C0.82934 61.5606 1.15358 62.2603 1.56315 62.9259C1.03413 63.5573 0.624552 64.2911 0.368573 65.1102C-0.211647 67.0386 -0.0751233 69.24 0.556292 71.1343C0.897598 72.1241 1.37543 73.0627 2.02391 73.8988C2.60413 74.6497 3.37206 75.5542 4.31065 75.8614C5.19804 76.1515 6.03425 75.5713 6.88751 75.3835C7.31414 75.2982 7.67251 75.3665 7.99675 75.5371C8.62817 76.3904 9.72035 76.9365 10.6419 77.4143C11.6999 77.9433 12.7921 78.4041 13.8331 78.9843C17.1779 80.8615 20.5909 82.6192 24.0722 84.2234C27.5194 85.8104 31.0519 87.2098 34.5674 88.6432C38.1511 90.0938 41.6836 91.6638 45.2161 93.2338C49.1923 95.0086 53.1856 96.7493 57.2301 98.3534C57.5714 98.4899 57.7932 98.2339 57.8274 97.9609C59.3462 97.2783 60.6773 96.169 61.9401 95.1281C63.6125 93.7628 75.3193 85.4691 79.4491 82.6021C83.7837 79.5987 88.1353 76.5781 92.4528 73.5575C96.7362 70.5711 100.968 67.4823 105.354 64.6324C107.743 63.0795 110.15 61.5607 112.505 59.9395C114.484 58.5913 116.686 57.5332 118.477 55.9291C118.938 55.5707 119.348 55.1782 119.672 54.6492C120.082 53.9325 120.269 52.8915 119.245 52.7379Z" fill="black"/>
<path d="M119.006 43.4375C118.989 43.4716 118.989 43.4887 118.989 43.4887C118.954 43.574 118.903 43.6593 118.869 43.7447C118.869 43.6764 118.852 43.5911 118.818 43.5399C118.818 43.5228 118.801 43.5228 118.801 43.5058C118.852 43.4887 118.937 43.4716 119.006 43.4375Z" fill="white"/>
<path d="M117.471 53.4035C117.266 53.54 117.079 53.6765 116.891 53.7959C115.799 54.4786 114.741 55.2294 113.648 55.9291C108.836 58.9838 104.211 62.3627 99.5184 65.6051C96.8562 67.4482 88.699 73.1821 87.385 74.0866C85.5419 75.3665 83.716 76.6634 81.89 77.9774C80.064 79.2744 78.238 80.5884 76.3779 81.8513C74.5348 83.1141 72.6406 84.2745 70.8146 85.5544C68.9886 86.8514 67.2309 88.2508 65.4561 89.5818C64.4834 90.3157 63.5107 91.0153 62.555 91.7491C61.4799 92.5853 60.4048 93.4045 59.2955 94.1895C58.9372 94.4454 58.5788 94.6844 58.2034 94.9062C58.1692 94.8209 58.101 94.7355 57.9986 94.6673C57.6573 94.4796 57.3842 94.1724 57.1453 93.814C57.2818 93.8482 57.4354 93.797 57.5549 93.6604C58.2375 92.7901 59.2955 92.244 60.2171 91.6809C61.4287 90.93 62.6233 90.1279 63.8008 89.3259C66.2923 87.6023 68.7838 85.8445 71.2242 84.0527C71.7361 83.6772 71.2412 82.824 70.7293 83.1994C68.2377 85.0254 65.7121 86.8173 63.1694 88.5579C62.0089 89.36 60.8314 90.1621 59.6198 90.8959C58.6641 91.4761 57.5719 92.0734 56.8552 92.9608C56.8211 92.9949 56.804 93.0461 56.7869 93.0802C56.6163 92.6365 56.4798 92.1416 56.4115 91.6979C56.4627 91.6809 56.5139 91.6638 56.5822 91.6126C57.9474 90.6399 59.3638 89.7525 60.7461 88.7969C62.0601 87.8924 63.2547 86.8343 64.6711 86.0835C65.2342 85.7763 64.7394 84.923 64.1762 85.2302C62.7768 85.9981 61.5652 87.0391 60.2512 87.9436C58.9542 88.848 57.6061 89.6842 56.3262 90.5887C56.3262 89.616 56.548 88.4897 57.4013 88.0289C57.5037 88.0289 57.6061 87.9948 57.6743 87.9265C57.7426 87.9436 57.8108 87.9436 57.8962 87.9095C59.1419 87.534 60.1147 86.6125 61.1556 85.8616C62.3502 85.0084 63.4936 84.0868 64.6711 83.1824C67.0944 81.3222 69.6541 79.6328 72.1457 77.8921C77.1629 74.3767 82.1459 70.8271 87.2143 67.397C92.2145 64.001 97.2828 60.6733 102.249 57.2602C104.689 55.5878 107.061 53.8471 109.485 52.1406C110.508 51.4239 111.652 50.8607 112.71 50.2122C113.836 49.5467 114.962 48.847 116.021 48.062C115.952 48.2668 115.901 48.4716 115.867 48.6764C115.799 48.7105 115.747 48.7617 115.696 48.83C115.406 49.2395 114.911 49.4955 114.502 49.7515C113.99 50.0757 113.495 50.417 113 50.7583C111.891 51.5092 110.867 52.3625 109.74 53.0792C108.648 53.7789 107.539 54.4615 106.481 55.2294C105.44 55.9974 104.399 56.7994 103.273 57.4479C102.727 57.7722 103.222 58.6254 103.768 58.3012C104.928 57.6356 105.969 56.8165 107.027 56.0315C108.136 55.2124 109.314 54.5127 110.474 53.7618C111.618 53.0109 112.676 52.1577 113.802 51.3897C114.297 51.0484 114.792 50.7242 115.304 50.4C115.44 50.3146 115.56 50.2293 115.696 50.144C115.696 50.5535 115.713 50.9802 115.816 51.3897C114.297 52.3795 112.863 53.4888 111.328 54.4444C109.911 55.3148 108.444 56.1339 107.181 57.2602C106.703 57.6868 107.403 58.3865 107.88 57.9599C109.109 56.8677 110.56 56.0827 111.942 55.2294C113.392 54.325 114.758 53.284 116.174 52.3454C116.259 52.499 116.362 52.6526 116.498 52.7891C116.754 53.0963 117.096 53.284 117.471 53.4035Z" fill="white"/>
<path d="M17.4843 68.4888C15.6071 67.6014 13.7982 66.6457 11.9722 65.656C11.0507 65.144 10.1291 64.6491 9.25882 64.0689C8.83218 63.7788 8.47381 63.4375 8.04718 63.2156C7.97892 63.1132 7.92772 62.9938 7.85946 62.8914C7.85946 62.8914 7.85947 62.8743 7.84241 62.8743C7.82534 62.7378 7.75707 62.6013 7.62055 62.533C7.46696 62.3112 7.29631 62.1235 7.05739 61.9869C6.68196 61.748 6.22119 61.7309 5.7775 61.7139C5.69217 61.7139 5.60685 61.7139 5.52153 61.6968C5.52153 61.6968 5.52152 61.6968 5.50446 61.6968C5.50446 61.6968 5.50445 61.6968 5.48739 61.6968C5.43619 61.6798 5.40206 61.6798 5.35086 61.6627C5.3338 61.6627 5.31674 61.6456 5.31674 61.6456C5.31674 61.6456 5.29967 61.6456 5.29967 61.6286C5.26554 61.6115 5.21434 61.5774 5.18021 61.5603C5.12902 61.5262 5.12901 61.5262 5.16315 61.5432C5.14608 61.5262 5.12902 61.5262 5.12902 61.5091C5.06076 61.4579 5.00957 61.3896 4.95837 61.3384C4.9413 61.3043 4.90717 61.2873 4.87304 61.2702C4.44641 60.7753 4.1051 60.161 3.88325 59.5637C3.86618 59.5125 3.84912 59.4613 3.83206 59.4101C4.82184 59.8879 5.7775 60.5022 6.75022 61.0142C7.99598 61.6627 9.25882 62.26 10.5217 62.8914C12.9449 64.103 15.2317 65.5365 17.5525 66.9017C18.8666 67.6867 20.1977 68.4376 21.5629 69.1202C22.126 69.4103 22.638 68.5571 22.0578 68.2669C19.6004 67.0382 17.2795 65.5706 14.9074 64.1713C12.5012 62.7549 10.0097 61.5774 7.53523 60.3145C6.20414 59.6319 4.92424 58.7957 3.54195 58.2155C3.50782 57.9766 3.50781 57.7377 3.52488 57.4988C4.90717 58.4203 6.52837 58.9834 7.99599 59.7343C9.9073 60.707 11.8527 61.6456 13.7811 62.5671C17.6891 64.4443 21.5458 66.4239 25.4708 68.2499C27.5528 69.2226 29.6518 70.1953 31.6314 71.3728C32.1775 71.6971 32.6724 70.8438 32.1263 70.5196C30.3686 69.4615 28.5085 68.5912 26.6483 67.7209C24.7541 66.8335 22.8769 65.929 21.0168 65.0075C17.0918 63.0621 13.1156 61.219 9.20762 59.2394C8.2349 58.7445 7.24512 58.2667 6.25534 57.8059C5.40207 57.4134 4.5488 57.0039 3.79793 56.4578C3.86619 56.2871 3.96858 56.1165 4.07097 55.9629C5.24847 56.3042 6.34066 56.9015 7.46697 57.3964C8.81513 57.9937 10.1121 58.6763 11.4432 59.3418C14.1907 60.707 17.0065 61.9187 19.771 63.2668C21.341 64.0348 22.894 64.8198 24.4469 65.6218C25.0101 65.912 25.505 65.0587 24.9418 64.7686C22.1772 63.3522 19.3785 61.9528 16.5628 60.6217C15.1634 59.9562 13.747 59.3589 12.3647 58.6763C11.4602 58.2326 10.5729 57.7718 9.66839 57.3281C9.68546 57.3281 9.70252 57.3452 9.71958 57.3452C9.73665 57.3452 9.77078 57.3622 9.78785 57.3793H9.8049C10.0438 57.4817 10.351 57.4476 10.4875 57.2086C10.4875 57.2086 10.4875 57.1916 10.5046 57.1916C11.0848 57.4305 11.665 57.6523 12.2282 57.9254C13.1497 58.352 14.0712 58.7445 14.9928 59.1541C18.0645 60.8094 21.2045 62.3794 24.3787 63.8129C27.7746 65.3488 31.256 66.6799 34.7202 68.0451C36.5291 68.8131 38.3551 69.5981 40.147 70.4172C44.3962 72.3456 48.7137 74.1545 52.9801 76.0487C54.0722 76.5436 55.1985 77.0726 56.359 77.3969C54.8402 78.9157 55.318 82.0898 56.2225 83.7793C56.4955 84.3083 56.8709 84.8032 57.3488 85.1445C57.2635 85.0933 57.1781 85.0933 57.0928 85.1104C55.9665 84.5131 54.7378 84.1035 53.5603 83.6769C51.9561 83.1138 50.3691 82.4482 48.7991 81.8168C45.8297 80.6222 42.8604 79.4789 39.891 78.2843C38.7818 77.8065 37.6725 77.3457 36.5633 76.8849C36.222 76.7484 35.8807 76.6119 35.5393 76.4754C32.9796 75.3661 30.4198 74.2398 27.86 73.1306C24.3616 71.5776 20.8803 70.0929 17.4843 68.4888Z" fill="white"/>
<path d="M19.5338 70.5199C19.4314 70.4858 19.3119 70.4516 19.2095 70.4175C19.0048 70.3151 18.7829 70.1957 18.5781 70.0933C18.8853 70.2298 19.2095 70.3663 19.5338 70.5199Z" fill="white"/>
<path d="M4.26014 62.0388C4.41372 62.2095 4.58438 62.3631 4.75503 62.4996C4.26014 62.2948 3.83351 61.9023 3.5434 61.4586C2.89492 60.4859 2.58774 59.2913 2.50241 58.148C2.41709 56.9875 2.51948 55.7418 3.16796 54.769C3.23622 54.8373 3.32155 54.9056 3.40687 54.9738C3.27035 55.0933 3.20209 55.281 3.21915 55.4516C3.06557 55.6906 2.94612 55.9295 2.84373 56.1855C2.04166 58.1138 2.91198 60.5542 4.26014 62.0388Z" fill="white"/>
<path d="M5.79688 55.5366C6.12112 55.4342 6.44536 55.2806 6.7696 55.1782C6.83786 55.3318 6.90612 55.4683 6.97438 55.6219C7.09384 55.8438 7.19623 56.0486 7.33275 56.2363C6.83786 55.9974 6.3259 55.7585 5.79688 55.5366Z" fill="white"/>
<path d="M5.3153 51.6121C5.29823 51.595 5.28117 51.595 5.28117 51.5779C5.21291 51.5267 5.1617 51.4755 5.11051 51.4073C5.07638 51.3732 5.05932 51.3561 5.02519 51.339C4.58149 50.8441 4.24018 50.2468 4.01833 49.6325C4.00127 49.5813 3.9842 49.5301 3.96714 49.4789C4.97399 49.9567 5.91258 50.554 6.90237 51.0489C8.14813 51.6803 9.42803 52.2776 10.6909 52.892C13.1141 54.0695 15.4179 55.4859 17.7559 56.834C19.0699 57.602 20.4181 58.3358 21.7833 59.0013C22.3464 59.2744 22.8413 58.4211 22.2782 58.1481C19.8037 56.9535 17.4658 55.5029 15.0937 54.1377C12.6875 52.7384 10.1618 51.595 7.6703 50.3492C6.32214 49.6837 5.04225 48.8475 3.65996 48.2843C3.62583 48.0454 3.60877 47.8065 3.62584 47.5676C5.00812 48.4721 6.62932 49.0181 8.114 49.7519C10.0424 50.7076 11.9878 51.6121 13.9333 52.5165C17.8583 54.3425 21.7321 56.288 25.6742 58.0798C27.7732 59.0355 29.8722 59.974 31.8689 61.1345C32.415 61.4587 32.9098 60.5884 32.3638 60.2812C30.589 59.2402 28.7289 58.387 26.8687 57.5337C24.9745 56.6634 23.0802 55.776 21.2031 54.8715C17.261 52.9773 13.2677 51.1684 9.3427 49.24C8.35292 48.7622 7.3802 48.2843 6.37335 47.8406C5.52008 47.4652 4.66681 47.0556 3.89887 46.5266C3.96714 46.356 4.06953 46.1853 4.17192 46.0146C5.34943 46.3389 6.45867 46.9191 7.56791 47.414C8.91607 47.9942 10.2301 48.6768 11.5612 49.3082C14.3258 50.6393 17.1586 51.8168 19.9232 53.1479C21.4932 53.8988 23.0632 54.6667 24.6161 55.4517C25.1793 55.7419 25.6742 54.8715 25.111 54.5985C22.3294 53.2162 19.5307 51.851 16.6978 50.554C15.2985 49.9055 13.865 49.3083 12.4827 48.6598C11.5782 48.2331 10.6909 47.7724 9.7864 47.3457C9.80347 47.3457 9.82053 47.3628 9.8376 47.3628C9.85466 47.3628 9.88879 47.3799 9.90586 47.3799H9.92292C10.1618 47.4823 10.469 47.4481 10.5885 47.1922C10.5885 47.1922 10.5885 47.1751 10.6055 47.1751C11.1857 47.3969 11.766 47.6358 12.3291 47.8918C13.3701 48.3526 14.4282 48.8134 15.4862 49.2571C17.5511 50.1274 19.6331 50.9807 21.6638 51.9534C23.7117 52.9261 25.7254 53.9159 27.8073 54.8033C31.9883 56.5951 36.2205 58.2334 40.3674 60.0764C44.6508 61.9707 48.9683 63.7284 53.2517 65.5715C54.3609 66.0493 55.4872 66.5612 56.6477 66.8855C55.1459 68.4214 55.6579 71.5784 56.5794 73.2679C56.8524 73.7799 57.2279 74.2747 57.7228 74.616C57.6374 74.5649 57.5521 74.5649 57.4668 74.5819C56.3405 74.0017 55.1118 73.5921 53.9172 73.1826C52.296 72.6365 50.726 71.988 49.1219 71.3737C45.6405 70.0255 42.1251 68.7285 38.6609 67.3292C35.1283 65.8957 31.63 64.3769 28.1145 62.8922C24.6503 61.4417 21.1519 59.9911 17.7388 58.4211C15.8616 57.5508 14.0186 56.6122 12.2097 55.6395C11.2881 55.1446 10.3496 54.6497 9.47923 54.0695C9.0526 53.7964 8.69423 53.4381 8.26759 53.2333C8.19933 53.1309 8.13107 53.0114 8.07988 52.909C8.07988 52.909 8.07987 52.892 8.06281 52.892C8.04574 52.7554 7.96042 52.6189 7.84096 52.5507C7.68738 52.3288 7.51672 52.1411 7.27781 52.0046C6.90237 51.7827 6.44161 51.7656 5.99791 51.7486C5.91258 51.7486 5.82725 51.7486 5.74193 51.7315C5.74193 51.7315 5.74192 51.7315 5.72486 51.7315C5.72486 51.7315 5.72487 51.7315 5.7078 51.7315C5.65661 51.7144 5.62247 51.7145 5.57128 51.6974C5.55421 51.6974 5.53714 51.6974 5.53714 51.6803C5.53714 51.6803 5.52008 51.6803 5.52008 51.6633C5.48595 51.6462 5.43476 51.6121 5.40063 51.595C5.29824 51.595 5.28116 51.595 5.3153 51.6121Z" fill="white"/>
<path d="M6.52911 43.9659C6.03421 43.8123 5.50519 43.8123 4.99323 44.0171C4.48127 44.2218 4.05465 44.5461 3.69628 44.9556C3.40617 44.9898 3.23551 45.297 3.25258 45.5529C3.11605 45.7919 2.97953 46.0308 2.89421 46.2868C2.12627 48.2322 3.03072 50.6555 4.37888 52.1231C4.53246 52.2937 4.70312 52.4473 4.87377 52.5838C4.37888 52.379 3.95224 51.9865 3.64507 51.5428C2.97952 50.5872 2.67235 49.3926 2.56996 48.2322C2.45051 46.9182 2.58703 45.4676 3.50856 44.4266C4.05465 43.8293 4.9591 43.3857 5.77823 43.471C6.06834 43.5051 6.30725 43.6928 6.51204 43.9147C6.54617 43.9488 6.54617 43.9659 6.52911 43.9659Z" fill="white"/>
<path d="M6.83503 45.2462C6.9033 45.3998 6.97155 45.5363 7.05688 45.6899C7.17634 45.9117 7.27873 46.1165 7.43232 46.3043C6.57905 45.9117 5.7258 45.5193 4.85547 45.2291C5.52101 44.7172 6.23775 44.7513 6.83503 45.2462Z" fill="white"/>
<path d="M30.2852 54.8198C31.7698 55.4171 33.2545 55.9803 34.7392 56.5775C38.34 57.994 41.8896 59.5298 45.4391 61.0486C49.4324 62.7722 53.4427 64.4788 57.5213 66.0488C57.692 66.117 57.8285 66.0829 57.9138 66.0146C57.9138 66.0317 57.9309 66.0488 57.9309 66.0829C57.9309 66.1 57.948 66.117 57.965 66.1512C57.9138 66.1512 57.8285 66.1512 57.7944 66.1512C57.3336 66.1341 56.8387 65.9634 56.395 65.8269C55.1151 65.4003 54.1083 64.9395 52.7943 64.3593C50.7806 63.489 48.7327 62.6698 46.702 61.8166C44.6712 60.9633 42.6575 60.0589 40.6438 59.1715C37.2307 57.6527 33.7494 56.2533 30.2852 54.8198Z" fill="#EF3D42"/>
<path d="M40.6089 69.3424C39.3461 68.8134 38.0833 68.2843 36.8034 67.7894C36.2914 67.5846 35.7795 67.3799 35.2846 67.1922C33.561 66.4584 31.8374 65.7416 30.1309 64.9907C31.5985 65.588 33.0832 66.1853 34.5678 66.7826C36.5815 67.6188 38.5952 68.472 40.6089 69.3424Z" fill="white"/>
<path d="M34.5503 77.0902C34.9086 77.2267 35.2499 77.3803 35.6083 77.5339C35.9837 77.6875 36.3592 77.8581 36.7346 78.0117C37.349 78.2677 37.9633 78.5237 38.5947 78.7796C40.7961 79.7182 42.9976 80.691 45.199 81.6637C49.1752 83.4214 53.1685 85.1791 57.2129 86.7833C57.1788 86.8003 57.1447 86.8174 57.1106 86.8174C56.957 86.7833 56.7863 86.7491 56.6327 86.6979C50.438 84.2064 44.3969 81.3565 38.2534 78.7626C35.5571 77.5851 32.8267 76.4417 30.1133 75.2812C31.598 75.8956 33.0826 76.4929 34.5503 77.0902Z" fill="white"/>
<path d="M58.3555 86.1349C58.6626 85.9643 58.9698 85.7937 59.2599 85.5889C58.9869 85.7937 58.6968 85.9814 58.3896 86.1691C58.3725 86.1691 58.3555 86.152 58.3555 86.1349Z" fill="white"/>
<path d="M63.4082 82.3634C64.5004 81.476 65.5926 80.5886 66.7359 79.7524C67.811 78.9845 69.0397 78.1141 70.3708 77.1756C73.3743 75.1107 76.4461 73.114 79.4496 71.0321C83.7841 68.0286 88.1358 65.008 92.4533 61.9875C96.7367 59.001 100.969 55.9122 105.355 53.0623C107.744 51.5094 110.15 49.9906 112.505 48.3694C113.819 47.4649 115.235 46.697 116.567 45.8096C116.567 45.8096 116.567 45.8266 116.549 45.8266C115.235 46.7652 113.802 47.5161 112.471 48.4035C110.372 49.7858 108.29 51.1851 106.191 52.5504C101.856 55.3491 97.6582 58.3355 93.426 61.3049C89.1426 64.3084 84.8422 67.2948 80.5588 70.2641C78.4427 71.7317 76.3437 73.1994 74.1934 74.6328C72.1285 76.0151 70.7463 77.3462 68.7155 78.7797C67.1114 79.9231 65.1147 81.1176 63.4082 82.3634Z" fill="white"/>
<path d="M117.471 43.1134C117.266 43.2499 117.079 43.3865 116.891 43.5059C115.799 44.1885 114.741 44.9394 113.648 45.6391C108.836 48.6938 104.211 52.0727 99.5184 55.3151C96.8562 57.1581 88.699 62.8921 87.385 63.7965C85.5419 65.0764 83.716 66.3734 81.89 67.6874C80.064 68.9844 78.238 70.2984 76.3779 71.5612C74.5348 72.8241 72.6406 73.9845 70.8146 75.2644C68.9886 76.5614 67.2309 77.9607 65.4561 79.2918C64.4834 80.0256 63.5107 80.7253 62.555 81.4591C61.4799 82.2953 60.4048 83.1144 59.2955 83.8994C58.9372 84.1554 58.5788 84.3943 58.2034 84.6162C58.1692 84.5308 58.101 84.4455 57.9986 84.3773C57.6573 84.1895 57.3842 83.8824 57.1453 83.524C57.2818 83.5581 57.4354 83.5069 57.5549 83.3704C58.2375 82.5001 59.2955 81.954 60.2171 81.3908C61.4287 80.64 62.6233 79.8379 63.8008 79.0358C66.2923 77.3122 68.7838 75.5545 71.2242 73.7626C71.7361 73.3872 71.2412 72.5339 70.7293 72.9094C68.2377 74.7354 65.7121 76.5272 63.1694 78.2679C62.0089 79.0699 60.8314 79.872 59.6198 80.6058C58.6641 81.1861 57.5719 81.7833 56.8552 82.6707C56.8211 82.7049 56.804 82.7561 56.7869 82.7902C56.6163 82.3465 56.4798 81.8516 56.4115 81.4079C56.4627 81.3908 56.5139 81.3738 56.5822 81.3226C57.9474 80.3499 59.3638 79.4624 60.7461 78.5068C62.0601 77.6023 63.2547 76.5443 64.6711 75.7934C65.2342 75.4862 64.7394 74.633 64.1762 74.9402C62.7768 75.7081 61.5652 76.7491 60.2512 77.6535C58.9542 78.558 57.6061 79.3942 56.3262 80.2986C56.3262 79.2406 56.5821 77.9948 57.6402 77.6365C57.7085 77.6535 57.7938 77.6535 57.8791 77.6194C59.1249 77.244 60.0976 76.3225 61.1386 75.5716C62.3331 74.7183 63.4765 73.7968 64.654 72.8923C67.0773 71.0322 69.6371 69.3427 72.1286 67.6021C77.1458 64.0866 82.1289 60.5371 87.1973 57.1069C92.1974 53.7109 97.2658 50.3832 102.232 46.9702C104.672 45.2978 107.044 43.5571 109.467 41.8506C110.491 41.1338 111.635 40.5707 112.693 39.9222C113.819 39.2567 114.945 38.557 116.003 37.772C115.935 37.9768 115.884 38.1815 115.85 38.3863C115.782 38.4205 115.73 38.4717 115.679 38.5399C115.389 38.9495 114.894 39.2055 114.485 39.4614C113.973 39.7857 113.478 40.127 112.983 40.4683C111.874 41.2192 110.85 42.0724 109.723 42.7892C108.631 43.4888 107.522 44.1715 106.464 44.9394C105.423 45.7073 104.382 46.5094 103.256 47.1579C102.71 47.4821 103.204 48.3354 103.751 48.0111C104.911 47.3456 105.952 46.5265 107.01 45.7415C108.119 44.9223 109.297 44.2227 110.457 43.4718C111.601 42.7209 112.659 41.8676 113.785 41.0997C114.28 40.7584 114.775 40.4342 115.287 40.1099C115.423 40.0246 115.543 39.9393 115.679 39.8539C115.679 40.2635 115.696 40.6901 115.799 41.0997C114.28 42.0895 112.846 43.1987 111.31 44.1544C109.894 45.0247 108.426 45.8438 107.164 46.9702C106.686 47.3968 107.385 48.0965 107.863 47.6698C109.092 46.5777 110.543 45.7927 111.925 44.9394C113.375 44.0349 114.741 42.994 116.157 42.0554C116.242 42.2089 116.345 42.3625 116.481 42.4991C116.754 42.8062 117.096 42.994 117.471 43.1134Z" fill="white"/>
<path d="M58.3555 75.8445C59.6524 75.1619 60.8299 74.1892 61.9392 73.2677C63.6116 71.9024 65.2498 70.5201 66.9905 69.2573C68.9189 67.858 70.8814 66.5098 72.8609 65.1787C71.581 66.1685 70.4718 67.1583 69.0213 68.2163C67.0076 69.6669 64.3454 71.2369 62.4511 72.8581C61.5979 73.5919 60.7275 74.3257 59.8231 74.9912C59.3794 75.3155 58.9186 75.6397 58.4237 75.9298C58.4067 75.8786 58.3725 75.8616 58.3555 75.8445Z" fill="white"/>
<path d="M116.566 36.0992C115.371 37.1744 113.972 38.0447 112.589 38.8638C111.463 39.5464 110.286 40.1437 109.193 40.8605C108.204 41.5089 107.265 42.2427 106.309 42.9254C105.115 43.7786 103.92 44.6148 102.726 45.434C99.8074 47.4477 96.8722 49.4272 93.9199 51.4068C97.7255 48.6764 101.497 45.8947 105.405 43.3008C107.777 41.7308 110.166 40.1779 112.504 38.5396C114.023 37.4815 115.661 36.5941 117.163 35.502C116.975 35.7238 116.77 35.9115 116.566 36.0992Z" fill="white"/>
<path d="M118.561 32.4642C118.68 32.3959 118.817 32.3789 118.936 32.3447C118.919 32.3789 118.919 32.3959 118.919 32.3959C118.766 32.8055 118.51 33.1297 118.203 33.4028C117.81 33.6246 117.418 33.8294 117.008 33.983C115.575 35.0752 113.97 35.9114 112.469 36.9012C110.37 38.2835 108.288 39.6828 106.189 41.048C105.796 41.304 105.387 41.5771 104.994 41.833C108.527 39.3074 110.933 37.5667 111.394 37.2595C113.39 35.8772 115.421 34.5632 117.435 33.198C117.81 32.9591 118.169 32.686 118.561 32.4642Z" fill="#EF3D42"/>
<path d="M117.402 32.0207C117.197 32.1572 117.01 32.3108 116.839 32.4302C115.747 33.1299 114.706 33.8808 113.631 34.5805C108.852 37.6863 104.262 41.1164 99.603 44.41C96.975 46.2702 88.8519 52.0894 87.572 53.0109C85.746 54.3079 83.9371 55.639 82.1111 56.953C80.3022 58.2671 78.4762 59.5982 76.6332 60.8781C74.8072 62.158 72.913 63.3355 71.1211 64.6324C69.3122 65.9464 67.5715 67.3628 65.7967 68.7281C64.8411 69.4619 63.8684 70.1786 62.9127 70.9295C61.8547 71.7657 60.7795 72.6019 59.6703 73.404C59.3119 73.6599 58.9536 73.8988 58.5952 74.1378C58.5611 74.0524 58.4928 73.9671 58.3733 73.8988C58.032 73.7111 57.7419 73.404 57.5201 73.0627C57.6566 73.0968 57.8102 73.0456 57.9126 72.892C58.5781 72.0217 59.6362 71.4585 60.5577 70.8954C61.7693 70.1445 62.9468 69.3254 64.1073 68.4892C66.5817 66.7314 69.0562 64.9566 71.4795 63.1477C71.9744 62.7723 71.4795 61.919 70.9675 62.2945C68.493 64.1546 65.9845 65.9635 63.4759 67.7383C62.3154 68.5574 61.155 69.3595 59.9604 70.1104C59.0047 70.7076 57.9126 71.3049 57.23 72.2094C57.1958 72.2435 57.1788 72.2947 57.1617 72.3288C56.974 71.8851 56.8545 71.3903 56.7692 70.9466C56.8204 70.9295 56.8716 70.9124 56.9399 70.8612C58.288 69.8714 59.7044 68.967 61.0696 68.0113C62.3666 67.0898 63.5612 66.0318 64.9605 65.2468C65.5237 64.9396 65.0117 64.0863 64.4486 64.3935C63.0492 65.1785 61.8547 66.2365 60.5577 67.1581C59.2607 68.0625 57.9467 68.9158 56.6668 69.8373C56.6497 68.7793 56.9057 67.5335 57.9467 67.1581C58.015 67.1751 58.1003 67.1751 58.1856 67.141C59.4143 66.7485 60.387 65.827 61.428 65.0761C62.6226 64.2058 63.7489 63.2672 64.9093 62.3627C67.3155 60.4685 69.8583 58.7619 72.3327 56.9872C77.3158 53.4205 82.2647 49.8197 87.299 46.3384C92.265 42.8912 97.2822 39.5123 102.231 36.031C104.654 34.3245 107.009 32.5667 109.416 30.8432C110.422 30.1093 111.566 29.5291 112.624 28.8806C113.75 28.198 114.876 27.4984 115.917 26.6963C115.849 26.9011 115.815 27.1059 115.764 27.3106C115.696 27.3448 115.644 27.396 115.593 27.4642C115.303 27.8738 114.808 28.1298 114.399 28.4028C113.887 28.7271 113.409 29.0854 112.914 29.4267C111.822 30.1947 110.798 31.0479 109.672 31.7817C108.579 32.4985 107.487 33.1811 106.446 33.9661C105.405 34.7511 104.381 35.5702 103.255 36.2187C102.709 36.543 103.221 37.3962 103.767 37.072C104.91 36.3894 105.951 35.5702 107.009 34.7682C108.119 33.949 109.279 33.2323 110.439 32.4643C111.566 31.7135 112.624 30.8432 113.733 30.0582C114.228 29.7168 114.723 29.3755 115.218 29.0513C115.354 28.966 115.474 28.8806 115.593 28.7783C115.593 29.1878 115.627 29.6144 115.73 30.024C114.228 31.0309 112.812 32.1572 111.276 33.1128C109.859 34.0002 108.409 34.8364 107.163 35.9627C106.685 36.3894 107.402 37.089 107.863 36.6454C109.074 35.5361 110.525 34.7511 111.89 33.8637C113.341 32.9422 114.689 31.8841 116.105 30.9285C116.191 31.0821 116.293 31.2357 116.429 31.3722C116.685 31.7305 117.027 31.9183 117.402 32.0207Z" fill="white"/>
<path d="M117.588 23.6249C117.298 24.1539 116.871 24.5976 116.428 25.0072C115.233 26.0994 113.851 26.9697 112.485 27.823C111.359 28.5056 110.199 29.137 109.107 29.8537C108.117 30.5022 107.195 31.2531 106.24 31.9528C105.062 32.806 103.885 33.6593 102.69 34.4955C97.8776 37.8915 92.9969 41.1851 88.1504 44.5299C83.2356 47.9259 78.3891 51.4072 73.5425 54.8885C71.1022 56.6462 68.6277 58.3698 66.1874 60.1446C63.9177 61.7829 61.7845 63.5918 59.549 65.2642C59.3271 65.4348 59.1053 65.5884 58.8834 65.725C58.8664 65.6567 58.8322 65.6055 58.7981 65.5372C58.764 65.4519 58.6957 65.3837 58.6445 65.3495C59.9415 64.6498 61.1019 63.6601 62.2112 62.7385C63.8665 61.3562 65.4877 59.9569 67.2284 58.677C71.2558 55.6735 75.488 52.9431 79.5836 50.042C83.9011 46.9873 88.2016 43.9326 92.5021 40.8608C96.7513 37.8232 100.949 34.7003 105.301 31.7992C107.673 30.2292 110.062 28.6762 112.4 27.038C114.107 25.8434 116.001 24.8707 117.639 23.5566C117.622 23.5908 117.605 23.6078 117.588 23.6249Z" fill="#EF3D42"/>
<path d="M67.4023 3.06055C68.8699 3.77729 70.4058 4.32337 71.9587 4.86946C73.7506 5.50088 75.5083 6.16643 77.3002 6.78078C81.0545 8.07774 84.8601 9.22111 88.6145 10.5351C92.42 11.8662 96.1573 13.4362 99.9117 14.955C103.632 16.4568 107.335 18.0439 111.072 19.4944C112.267 19.9552 113.496 20.2965 114.69 20.7572C115.356 21.0132 116.004 21.2863 116.619 21.6446C116.943 21.8324 117.284 22.0542 117.557 22.3272C115.987 23.7437 114.093 24.6993 112.352 25.8768C110.27 27.2762 108.205 28.6926 106.106 30.0749C101.806 32.9248 97.642 35.9624 93.4439 38.9659C89.1947 42.0035 84.9284 45.0411 80.662 48.0617C78.563 49.5464 76.464 51.0311 74.3479 52.4987C72.283 53.9151 70.2181 55.2974 68.1873 56.7479C66.1736 58.1985 64.2282 59.7343 62.3339 61.3385C61.4807 62.0723 60.6103 62.8061 59.7059 63.4716C58.955 64.0177 58.17 64.5638 57.3167 64.9051C50.3712 62.2088 43.6133 59.0517 36.7019 56.2872C33.1864 54.8878 29.6369 53.5567 26.1555 52.055C22.7083 50.5703 19.3294 48.8979 16.0188 47.1402C14.6706 46.4234 13.3395 45.7408 11.9572 45.0923C11.3258 44.8022 10.6773 44.478 10.08 44.1196C9.72167 43.9148 9.34624 43.6759 9.03906 43.3858C9.05613 43.3517 9.07319 43.3175 9.07319 43.2834C10.3872 41.9353 11.9914 40.9113 13.5443 39.8704C15.4727 38.5563 17.3669 37.174 19.2612 35.8429C23.1862 33.0954 27.1112 30.3479 30.9679 27.498C34.7735 24.6823 38.5791 21.9177 42.5211 19.2896C46.4291 16.6786 50.4053 14.17 54.3303 11.5761C58.6308 8.65796 62.8459 5.58621 67.4023 3.06055Z" fill="#EF3D42"/>
<path d="M8.93723 38.0616C11.0021 36.4063 13.1182 34.8363 15.2343 33.2663C19.6201 29.9898 23.9035 26.5938 28.2722 23.3172C32.5726 20.109 36.9755 17.0201 41.4466 14.0337C45.8836 11.0644 50.3717 8.19739 54.9623 5.46695C57.0784 4.20411 59.1774 2.92423 61.3618 1.78085C62.8464 1.01291 64.4847 0.483889 65.9523 1.59313C66.2254 1.79792 66.4814 2.05389 66.7203 2.30987C62.7441 4.54542 59.0068 7.17347 55.2183 9.73327C51.2933 12.3954 47.2659 14.9211 43.3067 17.5321C39.3646 20.1431 35.5079 22.8394 31.7194 25.6552C27.8456 28.5563 23.8694 31.3379 19.9102 34.1196C17.7429 35.6384 15.5927 37.2084 13.3913 38.7101C11.6677 39.8876 9.84169 41.0139 8.37408 42.5157C8.22049 42.3791 8.1181 42.1232 8.01571 42.0037C7.7256 41.5942 7.40135 41.3211 6.94059 41.1334C6.44569 40.9286 5.8996 40.8433 5.35352 40.8603C6.56515 39.973 7.74267 39.0173 8.93723 38.0616Z" fill="#EF3D42"/>
<path d="M3.78065 42.209C4.66805 41.8164 5.91382 41.6629 6.78415 42.1748C7.26197 42.4479 7.46676 43.011 7.8422 43.3523C7.8422 43.4377 7.85925 43.5059 7.91045 43.5742C8.54186 44.5298 9.71937 45.093 10.7092 45.5879C11.7672 46.1169 12.8765 46.5606 13.9174 47.1238C15.2827 47.8746 16.6649 48.5914 18.0472 49.291C17.6377 49.1204 17.211 48.9497 16.8015 48.762C14.7366 47.8917 12.6887 46.936 10.5897 46.151C9.77056 45.8439 8.91731 45.5026 8.38829 44.7858C8.21763 44.564 8.06404 44.3421 7.92752 44.1373C7.91045 44.0691 7.87632 43.9837 7.82513 43.9155C7.65448 43.7107 7.50089 43.5059 7.33023 43.3182C7.09132 43.0452 6.83534 42.7721 6.5111 42.5503C6.34044 42.4308 6.16979 42.4479 6.03327 42.5332C5.35066 42.4137 4.54859 42.6527 3.9513 42.9257C2.39836 43.6766 1.68163 45.4343 1.5963 47.0896C1.47684 49.4958 2.34717 53.1307 5.11174 53.6768C5.48718 53.7621 5.87968 53.7622 6.27218 53.728C6.4599 53.711 6.78415 53.6427 6.98893 53.6427C7.02306 53.8645 7.17665 54.0523 7.46676 54.0523C7.48382 54.0523 7.50088 54.0523 7.50088 54.0523C6.81827 54.0693 6.1698 54.3424 5.52132 54.5642C5.29947 54.6495 5.06055 54.7349 4.82164 54.6666C4.395 54.5472 4.03663 54.1888 3.72946 53.8987C3.02978 53.2331 2.44956 52.4311 2.02293 51.5607C0.657709 48.7962 0.367597 43.6766 3.78065 42.209Z" fill="#EF3D42"/>
<path d="M2.04238 53.4717C2.09358 53.5399 2.1277 53.6082 2.1789 53.6594C2.26422 53.7789 2.36662 53.8983 2.46902 54.0178C1.85467 54.854 1.54749 55.9291 1.4963 56.953C1.35977 59.3592 2.1789 62.9941 4.94348 63.5914C5.31891 63.6767 5.71141 63.6938 6.10392 63.6596C6.29163 63.6426 6.61587 63.5743 6.82065 63.5743C6.85479 63.7962 7.00837 63.9839 7.29848 63.9839C7.31555 63.9839 7.33262 63.9839 7.33262 63.9839C6.65001 63.9839 6.00152 64.2569 5.35304 64.4788C5.11413 64.5641 4.89228 64.6324 4.65337 64.5641C4.2438 64.4446 3.88544 64.0692 3.57826 63.7791C2.87859 63.0965 2.31543 62.2944 1.90586 61.4241C0.830746 59.2397 0.472378 55.6219 2.04238 53.4717Z" fill="#EF3D42"/>
<path d="M7.34791 66.5269C6.63117 66.1856 5.89736 65.8443 5.14648 65.5541C5.53899 65.4859 5.93148 65.3152 6.32398 65.1787C6.47757 65.247 6.63116 65.3323 6.76768 65.4518C6.83594 65.6053 6.90421 65.7419 6.97247 65.8954C7.10899 66.1344 7.21138 66.3392 7.34791 66.5269Z" fill="white"/>
<path d="M3.19994 65.7419C3.04635 65.9809 2.9269 66.2198 2.8245 66.4758C2.0395 68.4212 2.90982 70.8445 4.25798 72.3291C4.41157 72.4998 4.58222 72.6534 4.75288 72.7899C4.25798 72.5851 3.83135 72.1926 3.54124 71.7489C2.89276 70.7762 2.58559 69.5816 2.50026 68.4383C2.41493 67.2266 2.53439 65.9126 3.28526 64.9058C3.38765 64.9911 3.50712 65.0764 3.62657 65.1617C3.33646 65.2129 3.16581 65.486 3.19994 65.7419Z" fill="white"/>
<path d="M5.352 74.7862C5.11309 74.8716 4.89124 74.9398 4.65233 74.8716C4.24276 74.7521 3.8844 74.3767 3.57722 74.0866C2.87755 73.4039 2.31439 72.6019 1.90482 71.7316C0.829707 69.496 0.4884 65.7928 2.14373 63.6597C2.28025 63.8303 2.43385 64.0181 2.58743 64.2058C1.92189 65.059 1.58057 66.1853 1.51231 67.2604C1.37579 69.6666 2.19493 73.3016 4.95951 73.8988C5.33494 73.9842 5.72744 74.0012 6.11995 73.9671C6.30766 73.95 6.6319 73.8818 6.83668 73.8818C6.87082 74.1036 7.0244 74.2914 7.31451 74.2914C7.33158 74.2914 7.34865 74.2914 7.34865 74.2914C6.64897 74.2914 5.98342 74.5644 5.352 74.7862Z" fill="#EF3D42"/>
<path d="M11.9722 75.947C11.0507 75.435 10.1291 74.9401 9.25882 74.3599C8.83218 74.0698 8.47381 73.7285 8.04718 73.5066C7.97892 73.4043 7.92772 73.2848 7.85946 73.1824C7.85946 73.1824 7.85947 73.1653 7.84241 73.1653C7.82534 73.0288 7.75707 72.8923 7.62055 72.824C7.46696 72.6022 7.29631 72.4145 7.05739 72.2779C6.68196 72.039 6.22119 72.022 5.7775 72.0049C5.69217 72.0049 5.60685 72.0049 5.52153 71.9878C5.52153 71.9878 5.52152 71.9878 5.50446 71.9878C5.50446 71.9878 5.50445 71.9878 5.48739 71.9878C5.43619 71.9708 5.40206 71.9708 5.35086 71.9537C5.3338 71.9537 5.31674 71.9366 5.31674 71.9366C5.31674 71.9366 5.29967 71.9366 5.29967 71.9196C5.26554 71.9025 5.21434 71.8684 5.18021 71.8513C5.12902 71.8172 5.12901 71.8172 5.16315 71.8343C5.14608 71.8172 5.12902 71.8172 5.12902 71.8001C5.06076 71.7489 5.00957 71.6807 4.95837 71.6295C4.9413 71.5953 4.90717 71.5783 4.87304 71.5612C4.44641 71.0663 4.1051 70.452 3.88325 69.8547C3.86618 69.8035 3.84912 69.7523 3.83206 69.7011C4.82184 70.1789 5.7775 70.7933 6.75022 71.3052C7.99598 71.9537 9.25882 72.551 10.5217 73.1824C12.9449 74.394 15.2317 75.8275 17.5525 77.1928C18.8666 77.9778 20.1977 78.7286 21.5629 79.4112C22.126 79.7014 22.638 78.8481 22.0578 78.558C19.6004 77.3293 17.2795 75.8617 14.9074 74.4623C12.5012 73.0459 10.0097 71.8684 7.53523 70.6056C6.20414 69.9229 4.92424 69.0867 3.54195 68.5065C3.50782 68.2676 3.50781 68.0287 3.52488 67.7898C4.90717 68.7113 6.52837 69.2745 7.99599 70.0253C9.9073 70.9981 11.8527 71.9366 13.7811 72.8582C17.6891 74.7353 21.5458 76.7149 25.4708 78.5409C27.5528 79.5136 29.6518 80.4863 31.6314 81.6639C32.1775 81.9881 32.6724 81.1348 32.1263 80.8106C30.3686 79.7525 28.5085 78.8822 26.6483 78.0119C24.7541 77.1245 22.8769 76.22 21.0168 75.2985C17.0918 73.3531 13.1156 71.51 9.20762 69.5304C8.2349 69.0355 7.24512 68.5577 6.25534 68.097C5.40207 67.7045 4.5488 67.2949 3.79793 66.7488C3.86619 66.5781 3.96858 66.4075 4.07097 66.2539C5.24847 66.5952 6.34066 67.1925 7.46697 67.6874C8.81513 68.2847 10.1121 68.9673 11.4432 69.6328C14.1907 70.998 17.0065 72.2097 19.771 73.5578C21.341 74.3258 22.894 75.1108 24.4469 75.9129C25.0101 76.203 25.505 75.3497 24.9418 75.0596C22.1772 73.6432 19.3785 72.2438 16.5628 70.9127C15.1634 70.2472 13.747 69.6499 12.3647 68.9673C11.4602 68.5236 10.5729 68.0628 9.66839 67.6191C9.68546 67.6191 9.70252 67.6362 9.71958 67.6362C9.73665 67.6362 9.77078 67.6533 9.78785 67.6703H9.8049C10.0438 67.7727 10.351 67.7386 10.4875 67.4997C10.4875 67.4997 10.4875 67.4826 10.5046 67.4826C11.0848 67.7215 11.665 67.9434 12.2282 68.2164C13.2692 68.6942 14.3272 69.155 15.3682 69.5987C15.7095 69.7523 16.0508 69.8888 16.4092 70.0424C18.9348 71.4076 21.5117 72.6875 24.1227 73.8991C27.5699 75.4862 31.1024 76.8856 34.6178 78.319C35.8295 78.8139 37.024 79.3088 38.2186 79.8208C38.8671 80.1109 39.5156 80.384 40.147 80.6741C44.3962 82.6024 48.7137 84.4114 52.9801 86.3056C54.0722 86.8005 55.1985 87.3295 56.359 87.6538C54.8402 89.1726 55.318 92.3467 56.2225 94.0362C56.4955 94.5652 56.8709 95.0601 57.3488 95.4014C57.2635 95.3502 57.1781 95.3502 57.0928 95.3673C55.9665 94.77 54.7378 94.3604 53.5603 93.9338C51.9561 93.3706 50.3691 92.7051 48.7991 92.0737C45.3348 90.6914 41.8364 89.3432 38.3722 87.9097C34.8567 86.4421 31.3754 84.8892 27.877 83.3704C24.4128 81.8686 20.9485 80.401 17.5525 78.7969C15.6071 77.8924 13.7811 76.9368 11.9722 75.947Z" fill="white"/>
<path d="M118.991 53.7958C118.598 54.7856 117.574 55.3146 116.755 55.8948C116.653 55.9631 116.602 56.0484 116.567 56.1338C115.253 57.0723 113.82 57.8232 112.489 58.7106C110.39 60.0929 108.308 61.4923 106.209 62.8575C101.874 65.6562 97.6762 68.6426 93.444 71.612C89.1606 74.6155 84.8602 77.6019 80.5768 80.5713C78.4607 82.0389 76.3617 83.5065 74.2115 84.94C72.1466 86.3222 70.7643 87.6534 68.7335 89.0868C66.7027 90.5203 64.0235 92.0732 62.1292 93.6603C61.2589 94.3771 60.3886 95.1109 59.4671 95.7593C58.7162 96.3054 57.9312 96.8345 57.0608 97.1758C50.1323 94.4112 43.4257 91.1688 36.5313 88.336C33.0329 86.9025 29.5004 85.5372 26.0362 83.9843C23.5276 82.858 21.036 81.6464 18.5957 80.3835C21.1896 81.5781 23.8177 82.7044 26.4457 83.8307C29.8929 85.3154 33.323 86.8513 36.7702 88.3018C40.1833 89.7524 43.6305 91.0835 47.0777 92.4487C48.8695 93.1654 50.6272 93.9334 52.4362 94.5819C54.0062 95.145 55.6615 95.6228 57.0779 96.5102C57.351 96.6809 57.624 96.5443 57.7435 96.3225C58.2042 96.1518 58.665 95.8105 58.9039 95.657C59.9449 94.9914 60.9517 94.2406 61.9415 93.4897C64.416 91.6125 109.298 60.0417 111.431 58.5912C113.445 57.2259 115.492 55.929 117.506 54.5979C117.882 54.359 118.24 54.0689 118.632 53.8641C118.752 53.7958 118.905 53.7788 119.008 53.7446C118.991 53.7617 118.991 53.7958 118.991 53.7958Z" fill="#EF3D42"/>
</svg>
